<svg width="1280" height="172" viewBox="0 0 1280 172" fill="none" xmlns="http://www.w3.org/2000/svg">
<g clip-path="url(#clip0_93_37)">
<path d="M0 0H1311V172H0V0Z" fill="#483EFF"/>
<path fill-rule="evenodd" clip-rule="evenodd" d="M23.6857 206.538C67.1775 309.111 256.923 369.298 306.438 286.153C355.954 203.007 230.664 187.919 186.375 102C142.085 16.0806 107.67 -37.5443 43.6747 -17.9708C-20.3203 1.60359 -19.8053 103.964 23.6857 206.538Z" fill="#6259FF"/>
<path d="M63.8057 210.884C106.224 210.884 140.611 176.481 140.611 134.043C140.611 91.6048 106.224 57.202 63.8057 57.202C21.3871 57.202 -13 91.6048 -13 134.043C-13 176.481 21.3871 210.884 63.8057 210.884Z" fill="#FFAF7E"/>
<path fill-rule="evenodd" clip-rule="evenodd" d="M330.923 273.124C400.537 240.681 437.434 108.456 378.964 76.3282C320.494 44.2015 313.115 130.917 254.992 163.51C196.868 196.103 160.754 221.113 175.779 264.749C190.805 308.385 261.308 305.568 330.923 273.124Z" fill="#F9818E"/>
<path fill-rule="evenodd" clip-rule="evenodd" d="M1085.12 -138.181C1008.47 -133.37 925.877 -23.7183 968.596 27.5261C1011.32 78.7693 1049.82 0.72169 1115.83 -8.42103C1181.84 -17.563 1224.59 -27.675 1226.52 -73.785C1228.44 -119.895 1161.77 -142.992 1085.12 -138.181Z" fill="#F9818E"/>
<path d="M253.148 121.616L265.318 109.218M303.807 127.907L289.459 115.858M278.682 144.44L270.757 161.417" stroke="white" stroke-width="5" stroke-linecap="round" stroke-linejoin="bevel"/>
<path d="M914 -9.60237L926.17 -22M964.659 -3.31067L950.311 -15.3599M939.534 13.2219L931.608 30.1994" stroke="white" stroke-width="5" stroke-linecap="round" stroke-linejoin="bevel"/>
<path d="M1051.14 105.238L1090.91 102.277M1136.51 192.1L1126.55 149.91M1066.94 182.686L1028.7 199.866" stroke="white" stroke-width="5" stroke-linecap="round" stroke-linejoin="bevel"/>
<path fill-rule="evenodd" clip-rule="evenodd" d="M834.645 84.3798C732.836 59.9484 602.504 155.314 648.592 231.744C694.679 308.174 760.761 232.349 849.419 247.563C938.076 262.779 996.322 267.75 1007.97 214.796C1019.62 161.841 936.454 108.812 834.645 84.3798Z" fill="#6259FF"/>
<path d="M1241.81 237.682C1284.22 237.682 1318.61 203.279 1318.61 160.841C1318.61 118.403 1284.22 84 1241.81 84C1199.39 84 1165 118.403 1165 160.841C1165 203.279 1199.39 237.682 1241.81 237.682Z" fill="#FFAF7E"/>
</g>
<defs>
<clipPath id="clip0_93_37">
<rect width="1280" height="172" fill="white"/>
</clipPath>
</defs>
</svg>
